<svg width="8" height="8" viewBox="0 0 8 8" fill="none" xmlns="http://www.w3.org/2000/svg">
<g clip-path="url(#clip0_1_44)">
<path d="M5.09 4.11C5.055 4.11 5.0215 4.11625 4.99075 4.128C5.00136 4.13613 5.00997 4.14658 5.01591 4.15855C5.02185 4.17052 5.02497 4.18369 5.02504 4.19705C5.0251 4.21042 5.0221 4.22362 5.01627 4.23564C5.01043 4.24767 5.00192 4.2582 4.99139 4.26642C4.98086 4.27465 4.96858 4.28035 4.9555 4.28309C4.94242 4.28584 4.92889 4.28555 4.91594 4.28225C4.90299 4.27895 4.89096 4.27273 4.88079 4.26406C4.87062 4.25539 4.86257 4.24451 4.85725 4.23225C4.82475 4.27936 4.80739 4.33527 4.8075 4.3925C4.8075 4.44 4.82 4.485 4.84 4.525H5.34C5.36296 4.48192 5.37435 4.43363 5.37307 4.38484C5.37179 4.33604 5.35788 4.28841 5.33269 4.2466C5.3075 4.20479 5.2719 4.17023 5.22937 4.14629C5.18683 4.12234 5.13881 4.10984 5.09 4.11ZM3.1975 4.3925C3.19758 4.34572 3.18603 4.29966 3.16389 4.25846C3.14175 4.21725 3.10972 4.1822 3.07067 4.15644C3.03163 4.13068 2.9868 4.11503 2.9402 4.1109C2.89361 4.10676 2.84672 4.11427 2.80375 4.13275C2.81289 4.14105 2.82017 4.15119 2.82511 4.16251C2.83005 4.17382 2.83253 4.18606 2.83241 4.1984C2.83228 4.21075 2.82955 4.22293 2.82438 4.23414C2.81921 4.24535 2.81173 4.25534 2.80243 4.26346C2.79312 4.27157 2.7822 4.27763 2.77039 4.28122C2.75858 4.28482 2.74614 4.28587 2.7339 4.28432C2.72165 4.28276 2.70987 4.27863 2.69933 4.2722C2.68879 4.26577 2.67973 4.25718 2.67275 4.247C2.64766 4.28876 2.63377 4.33629 2.63241 4.38498C2.63105 4.43368 2.64228 4.48191 2.665 4.525H3.165C3.185 4.485 3.1975 4.44 3.1975 4.3925ZM2.915 3.8975C2.99106 3.89765 3.06607 3.91529 3.13423 3.94905C3.20239 3.9828 3.26188 4.03177 3.3081 4.09218C3.35432 4.15258 3.38604 4.22281 3.40081 4.29742C3.41557 4.37203 3.41299 4.44904 3.39325 4.5225H3.4325C3.5125 4.5225 3.575 4.45 3.56 4.3725C3.52507 4.19675 3.43018 4.03859 3.29156 3.92505C3.15294 3.81151 2.97919 3.74963 2.8 3.75C2.4375 3.75 2.1325 4 2.0475 4.335C2.0225 4.43 2.0975 4.5225 2.1975 4.5225H2.437C2.41727 4.44906 2.41468 4.37208 2.42944 4.29748C2.44419 4.22289 2.47588 4.15268 2.52208 4.09228C2.56827 4.03188 2.62773 3.9829 2.69585 3.94913C2.76398 3.91536 2.83896 3.89769 2.915 3.8975ZM5.205 3.75C4.8275 3.75 4.515 4.0175 4.445 4.3725C4.43 4.45 4.4925 4.5225 4.5725 4.5225H4.61175C4.59202 4.44904 4.58943 4.37203 4.6042 4.29742C4.61896 4.22281 4.65068 4.15258 4.6969 4.09218C4.74312 4.03177 4.80261 3.9828 4.87077 3.94905C4.93893 3.91529 5.01394 3.89765 5.09 3.8975C5.16604 3.89769 5.24102 3.91536 5.30915 3.94913C5.37728 3.9829 5.43673 4.03188 5.48293 4.09228C5.52912 4.15268 5.56082 4.22289 5.57557 4.29748C5.59032 4.37208 5.58773 4.44906 5.568 4.5225H5.8075C5.9075 4.5225 5.9825 4.43 5.9575 4.335C5.9147 4.16785 5.81755 4.01967 5.68132 3.91377C5.5451 3.80787 5.37754 3.75026 5.205 3.75ZM2.402 3.64075C2.53225 3.59425 2.719 3.55925 2.96575 3.5825C2.99877 3.58562 3.03168 3.57549 3.05723 3.55434C3.08278 3.5332 3.09889 3.50277 3.102 3.46975C3.10512 3.43673 3.09499 3.40383 3.07384 3.37827C3.0527 3.35272 3.02227 3.33662 2.98925 3.3335C2.706 3.30675 2.48275 3.3465 2.318 3.40525C2.30254 3.41077 2.28831 3.41927 2.27614 3.43029C2.26396 3.4413 2.25408 3.4546 2.24704 3.46944C2.23284 3.4994 2.23111 3.53377 2.24225 3.565C2.25339 3.59623 2.27648 3.62175 2.30644 3.63596C2.3364 3.65017 2.37077 3.65189 2.402 3.64075ZM4.89675 3.5825C5.1435 3.55925 5.33025 3.5945 5.4605 3.64075C5.49173 3.65189 5.52611 3.65017 5.55606 3.63596C5.58602 3.62175 5.60911 3.59623 5.62025 3.565C5.63139 3.53377 5.62967 3.4994 5.61546 3.46944C5.60126 3.43948 5.57573 3.41639 5.5445 3.40525C5.37975 3.34675 5.1565 3.30675 4.87325 3.3335C4.84023 3.33662 4.8098 3.35272 4.78866 3.37827C4.76751 3.40383 4.75739 3.43673 4.7605 3.46975C4.76362 3.50277 4.77972 3.5332 4.80527 3.55434C4.83083 3.57549 4.86373 3.58562 4.89675 3.5825ZM4.75725 5.41C4.52494 5.53249 4.26587 5.59546 4.00325 5.59325C3.74077 5.59425 3.48199 5.53136 3.24925 5.41C3.17425 5.36975 3.0945 5.45525 3.142 5.528C3.2344 5.67263 3.36173 5.79166 3.51225 5.87411C3.66277 5.95657 3.83163 5.99979 4.00325 5.99979C4.17488 5.99979 4.34374 5.95657 4.49425 5.87411C4.64477 5.79166 4.7721 5.67263 4.8645 5.528C4.9095 5.45775 4.83225 5.3725 4.75725 5.41ZM4.00075 5.25C4.16825 5.25 4.31825 5.16375 4.40575 5.03175C4.48575 4.9125 4.40075 4.75 4.25825 4.75H3.74075C3.59825 4.75 3.51325 4.9125 3.59325 5.03175C3.68325 5.16375 3.83325 5.25 4.00075 5.25ZM7.40725 6.0625L6.5495 5.4865C6.57975 5.3815 6.607 5.27475 6.627 5.16375C6.87362 5.11452 7.09549 4.98119 7.25471 4.78654C7.41394 4.59188 7.50064 4.34798 7.5 4.0965C7.5 3.91487 7.45444 3.73614 7.36748 3.57668C7.28052 3.41721 7.15494 3.28211 7.00225 3.18375V2.75C7.00225 1.37 5.88225 0.25 4.50225 0.25H3.04975C2.75875 0.25 2.51975 0.48025 2.5055 0.77C2.08842 0.833767 1.70798 1.04484 1.43313 1.36496C1.15827 1.68508 1.00719 2.09307 1.00725 2.515V3.175C0.851661 3.27316 0.723514 3.40918 0.634801 3.57034C0.546088 3.7315 0.499708 3.91254 0.500001 4.0965C0.500001 4.577 0.810001 4.9865 1.242 5.12925C1.2675 5.28075 1.305 5.4255 1.3495 5.5655L0.609751 6.0625C0.472251 6.155 0.462251 6.355 0.589751 6.4625L1.38725 7.165C1.56725 7.325 1.84975 7.25 1.93225 7.025L2.0415 6.71975C2.5335 7.213 3.2005 7.5 3.9375 7.5C4.72625 7.5 5.4355 7.16975 5.936 6.609L6.08475 7.025C6.16725 7.25 6.44975 7.325 6.62975 7.165L7.42725 6.4625C7.55475 6.355 7.54475 6.155 7.40725 6.0625ZM6.4125 4.68325L6.18675 4.67975L6.16025 4.904C6.14828 5.00054 6.13143 5.09642 6.10975 5.19125C6.04226 5.50027 5.91597 5.79343 5.73775 6.05475C5.3265 6.651 4.67 7 3.9375 7C3.2585 7 2.646 6.701 2.23275 6.18425C2.02975 5.93025 1.8755 5.6235 1.7855 5.27275C1.75306 5.14921 1.72917 5.02358 1.714 4.89675L1.69175 4.70425L1.49975 4.67775C1.36036 4.65743 1.233 4.58741 1.14116 4.48059C1.04933 4.37378 0.999191 4.23737 1 4.0965C0.999347 3.96345 1.04407 3.83415 1.12679 3.72993C1.2095 3.62572 1.32528 3.55282 1.455 3.52325L1.65775 3.47875L1.65475 3.383L1.654 3.3595L1.68725 3.26225C1.72286 3.15721 1.787 3.06415 1.8725 2.9935C2.20922 2.71848 2.48024 2.3717 2.66575 1.9785C3.11025 2.61275 3.82875 3.02875 4.6445 3.02875H5.2345C5.51675 3.02875 5.769 3.1535 5.94675 3.35775L5.978 3.39375L6.0455 3.51125H6.458C6.758 3.53025 6.9995 3.78325 6.9995 4.09675C6.9995 4.423 6.73825 4.68325 6.421 4.68325H6.4125Z" fill="white"/>
</g>
<defs>
<clipPath id="clip0_1_44">
<rect width="8" height="8" fill="white"/>
</clipPath>
</defs>
</svg>
