<svg width="9" height="8" viewBox="0 0 9 8" fill="none" xmlns="http://www.w3.org/2000/svg">
<path d="M4.5 0.5C4.95963 0.5 5.41475 0.59053 5.83939 0.766422C6.26403 0.942313 6.64987 1.20012 6.97487 1.52513C7.29988 1.85013 7.55769 2.23597 7.73358 2.66061C7.90947 3.08525 8 3.54037 8 4C8 4.45963 7.90947 4.91475 7.73358 5.33939C7.55769 5.76403 7.29988 6.14987 6.97487 6.47487C6.64987 6.79988 6.26403 7.05769 5.83939 7.23358C5.41475 7.40947 4.95963 7.5 4.5 7.5C4.04037 7.5 3.58525 7.40947 3.16061 7.23358C2.73597 7.05769 2.35013 6.79988 2.02513 6.47487C1.70012 6.14987 1.44231 5.76403 1.26642 5.33939C1.09053 4.91475 1 4.45963 1 4C1 3.54037 1.09053 3.08525 1.26642 2.66061C1.44231 2.23597 1.70012 1.85013 2.02513 1.52513C2.35013 1.20012 2.73597 0.942313 3.16061 0.766422C3.58525 0.59053 4.04037 0.5 4.5 0.5ZM4.5 0.5C4.29372 0.5 4.09589 0.581944 3.95003 0.727806C3.80417 0.873668 3.72222 1.0715 3.72222 1.27778C3.72222 1.48406 3.80417 1.68189 3.95003 1.82775C4.09589 1.97361 4.29372 2.05556 4.5 2.05556M3.33333 3.22222H3.33722M5.66667 3.22222H5.67056M3.52778 5.16667C3.65451 5.29601 3.80577 5.39877 3.97272 5.46892C4.13966 5.53907 4.31892 5.5752 4.5 5.5752C4.68108 5.5752 4.86034 5.53907 5.02728 5.46892C5.19423 5.39877 5.34549 5.29601 5.47222 5.16667" stroke="white" stroke-linecap="round" stroke-linejoin="round"/>
</svg>
